<?xml version="1.0" standalone="no"?>
<!DOCTYPE svg PUBLIC "-//W3C//DTD SVG 1.1//EN" "http://www.w3.org/Graphics/SVG/1.1/DTD/svg11.dtd" >
<svg xmlns="http://www.w3.org/2000/svg" xmlns:xlink="http://www.w3.org/1999/xlink" version="1.1">
<metadata>
Created by FontForge 20170731 at Fri Oct 28 12:29:01 2022
 By Aleksey,,,
</metadata>
<defs>
<font id="NinetiesDisplayRegular" horiz-adv-x="319" >
  <font-face 
    font-family="Nineties Display"
    font-weight="400"
    font-stretch="normal"
    units-per-em="2048"
    panose-1="0 0 0 0 0 0 0 0 0 0"
    ascent="1638"
    descent="-410"
    x-height="1430"
    cap-height="1434"
    bbox="-20 -270 1536 1534"
    underline-thickness="102"
    underline-position="-307"
    unicode-range="U+000A-00AD"
  />
<missing-glyph horiz-adv-x="1079" 
d="M102 1434h875v-1434h-875v1434zM160 1393l379 -633l381 633h-760zM514 717l-369 614v-1231zM541 674l-379 -631h758zM565 717l371 -621v1239z" />
    <glyph glyph-name=".notdef" horiz-adv-x="1079" 
d="M102 1434h875v-1434h-875v1434zM160 1393l379 -633l381 633h-760zM514 717l-369 614v-1231zM541 674l-379 -631h758zM565 717l371 -621v1239z" />
    <glyph glyph-name=".null" horiz-adv-x="0" 
 />
    <glyph glyph-name=".null" horiz-adv-x="0" 
 />
    <glyph glyph-name="nonmarkingreturn" horiz-adv-x="682" 
 />
    <glyph glyph-name="controlLF" unicode="&#xa;" horiz-adv-x="0" 
 />
    <glyph glyph-name="controlCR" unicode="&#xd;" horiz-adv-x="0" 
 />
    <glyph glyph-name="space" unicode=" " horiz-adv-x="679" 
 />
    <glyph glyph-name="exclam" unicode="!" 
d="M271 319h-222v1109h222v-1109zM271 0h-222v202h222v-202z" />
    <glyph glyph-name="quotedbl" unicode="&#x22;" horiz-adv-x="675" 
d="M626 1009h-222v383h222v-383zM271 1009h-222v383h222v-383z" />
    <glyph glyph-name="quotedbl" unicode="&#x201d;" horiz-adv-x="675" 
d="M626 1009h-222v383h222v-383zM271 1009h-222v383h222v-383z" />
    <glyph glyph-name="quotedbl" unicode="&#x201c;" horiz-adv-x="675" 
d="M626 1009h-222v383h222v-383zM271 1009h-222v383h222v-383z" />
    <glyph glyph-name="numbersign" unicode="#" horiz-adv-x="1216" 
d="M1168 901v-110h-355l-22 -227h377v-111h-388l-37 -390l-111 10l37 380h-186l-38 -390l-110 10l36 380h-322v111h333l22 227h-355v110h365l38 397l111 -10l-37 -387h186l38 397l110 -10l-37 -387h345zM679 564l22 227h-186l-22 -227h186z" />
    <glyph glyph-name="dollar" unicode="$" horiz-adv-x="1214" 
d="M662 1139l1 -392l502 -178v-26q0 -216 -145 -375t-357 -180v-112h-111v112q-139 14 -254.5 91t-182 199.5t-66.5 264.5h236q10 -15 29 -34l230 -231q2 -2 8 -6v397l-503 178v20q0 142 66.5 264.5t182 199.5t254.5 91v112h110v-112q139 -14 254.5 -91t182 -199.5
t66.5 -264.5h-236q-14 21 -28 35l-231 230q-5 5 -8 7zM552 786v412q-64 15 -127 -1.5t-111 -64.5t-64.5 -111t-1.5 -127zM965 522l-303 108v-418q64 -15 127.5 1.5t111.5 64.5q49 49 65.5 115.5t-1.5 128.5z" />
    <glyph glyph-name="percent" unicode="%" horiz-adv-x="1386" 
d="M1230 627q107 -107 107 -259.5t-107 -259.5q-108 -108 -260 -108t-260 108q-117 117 -106 286l-190 -391h-124l403 826q-5 -6 -17 -18q-108 -108 -260 -108q-151 0 -259 108q-107 107 -107 259.5t107 259.5t259.5 107t259.5 -107q66 -66 92 -153t9 -175l212 436h123
l-389 -799q108 98 255.5 95t251.5 -107zM599 947v237q0 76 -53.5 129.5t-129.5 53.5t-129 -53.5t-53 -129.5v-237q0 -76 53 -129.5t129 -53.5t129.5 53.5t53.5 129.5zM1153 244v237q0 76 -53.5 129.5t-129.5 53.5t-129.5 -53.5t-53.5 -129.5v-237q0 -76 53.5 -129t129.5 -53
t129.5 53t53.5 129z" />
    <glyph glyph-name="ampersand" unicode="&#x26;" horiz-adv-x="1214" 
d="M1000 557h13h152q0 -129 -58 -245v-313h-110v160q-78 -75 -178.5 -117.5t-211.5 -42.5q-113 0 -216.5 44.5t-178.5 119.5t-119 178.5t-44 216.5q0 43 23 80l103 164l-126 76q0 113 44 216.5t119 178.5t178.5 119t216.5 44t216.5 -44t178.5 -119t119 -178.5t44 -216.5
h-229q-15 24 -35 44l-225 225q-70 70 -169 77t-175 -55q-12 -10 -16 -14q-75 -74 -59.5 -179.5t106.5 -159.5l617 -365q14 55 20 106zM901 282q20 20 41 62l-693 414q-18 -63 -1 -129.5t66 -115.5l230 -231q74 -74 179 -74t178 74z" />
    <glyph glyph-name="quotesingle" unicode="'" 
d="M271 1009h-222v383h222v-383z" />
    <glyph glyph-name="quotesingle" unicode="&#x2019;" 
d="M271 1009h-222v383h222v-383z" />
    <glyph glyph-name="quotesingle" unicode="&#x2018;" 
d="M271 1009h-222v383h222v-383z" />
    <glyph glyph-name="parenleft" unicode="(" horiz-adv-x="382" 
d="M333 1434q-173 -337 -173 -717t174 -716h-124q-161 340 -161.5 716.5t160.5 716.5h124z" />
    <glyph glyph-name="parenright" unicode=")" horiz-adv-x="382" 
d="M173 1434q161 -340 161.5 -716.5t-160.5 -716.5h-123q173 337 172.5 717t-174.5 716h124z" />
    <glyph glyph-name="asterisk" unicode="*" horiz-adv-x="1206" 
d="M1157 773v-222h-286l202 -203l-156 -156l-203 202v-286h-222v286l-202 -202l-157 156l203 203h-287v222h287l-203 202l157 157l202 -203v287h222v-287l203 203l156 -157l-202 -202h286z" />
    <glyph glyph-name="plus" unicode="+" horiz-adv-x="1206" 
d="M714 773h443v-222h-443v-443h-222v443h-443v222h443v443h222v-443z" />
    <glyph glyph-name="comma" unicode="," horiz-adv-x="505" 
d="M201 -2h255l-152 -268h-255z" />
    <glyph glyph-name="hyphen" unicode="-" horiz-adv-x="985" 
d="M936 551h-887v222h887v-222z" />
    <glyph glyph-name="period" unicode="." 
d="M271 0h-222v244h222v-244z" />
    <glyph glyph-name="slash" unicode="/" horiz-adv-x="919" 
d="M748 1436h123l-699 -1435h-123z" />
    <glyph glyph-name="zero" unicode="0" horiz-adv-x="1529" 
d="M1271 1223q137 -137 186 -322t0 -369.5t-186 -321.5q-101 -101 -232 -155.5t-274 -54.5t-274 54.5t-232 155.5q-137 137 -186 321.5t0 369.5t186 322q101 101 232 155t274 54t274 -54t232 -155zM1133 465v475q0 152 -108 260t-260 108t-259.5 -108t-107.5 -260v-475
q0 -152 107.5 -260t259.5 -108t260 108t108 260z" />
    <glyph glyph-name="one" unicode="1" horiz-adv-x="632" 
d="M325 1433h221v-1433h-221v1211h-54l-55 -149l-208 77l81 221q12 33 40.5 52.5t63.5 19.5h132v1z" />
    <glyph glyph-name="two" unicode="2" horiz-adv-x="1224" 
d="M289 550v-328h833v-222h-1056v347q0 112 65 203.5t171 129.5l685 242q21 129 -70 220q-73 74 -178 74t-179 -74l-230 -230q-14 -14 -28 -35h-236q0 113 44 216.5t119 178.5t178.5 119t216.5 44t216.5 -44t178 -119t118.5 -178.5t44 -216.5l-842 -302q-25 -8 -50 -25z" />
    <glyph glyph-name="three" unicode="3" horiz-adv-x="1226" 
d="M1171 877l-451 -148l451 -171q0 -113 -44 -216.5t-119 -178.5t-178.5 -119t-216.5 -44t-216.5 44t-178.5 119t-119 178.5t-44 216.5h236q10 -15 29 -34l230 -231q74 -73 179 -73t178 73q46 46 63 106.5t5 121.5l-440 156v104l444 157q13 119 -72 204q-73 74 -178 74
t-179 -74l-230 -230q-17 -17 -29 -35h-236q0 113 44 216.5t119 178.5t178.5 119t216.5 44t216.5 -44t178.5 -119t119 -178.5t44 -216.5z" />
    <glyph glyph-name="four" unicode="4" horiz-adv-x="1200" 
d="M832 496h335v-222h-335v-274h-111v274h-575q-62 0 -95 54q-32 53 -3 109l499 939q31 58 98 58h187v-938zM330 496h391v717h-9z" />
    <glyph glyph-name="five" unicode="5" horiz-adv-x="1222" 
d="M289 1213v-328q25 -17 50 -25l842 -302q0 -113 -44 -216.5t-119 -178.5t-178.5 -119t-216.5 -44t-216.5 44t-178 119t-118.5 178.5t-44 216.5h236q14 -21 28 -35l230 -230q74 -73 179 -73t178 73q91 91 70 220l-685 242q-106 38 -171 129.5t-65 203.5v347h1056v-222h-833
z" />
    <glyph glyph-name="six" unicode="6" horiz-adv-x="1234" 
d="M1179 578q0 -152 -74.5 -285t-203.5 -212.5t-280 -79.5q-113 0 -216.5 44t-178.5 119t-119 178.5t-44 216.5v332h1q3 110 48.5 210t120 172.5t176 115t212.5 42.5q113 0 216.5 -44t178.5 -119t119 -178.5t44 -216.5h-229q-15 24 -35 44l-231 231q-74 74 -178 74t-178 -74
q-50 -50 -66.5 -117.5t3.5 -131.5zM915 284q49 49 66 115.5t-1 128.5l-710 251q-26 -66 -10.5 -138.5t68.5 -125.5l230 -231q74 -74 179 -74t178 74z" />
    <glyph glyph-name="seven" unicode="7" horiz-adv-x="1140" 
d="M39 1433h1067v-225q0 -56 -37 -99l-719 -929v-182h-305v238q0 57 37 100l719 929v57h-762v111z" />
    <glyph glyph-name="eight" unicode="8" horiz-adv-x="1232" 
d="M1076 737l-203 -80l299 -102q0 -150 -74.5 -278t-202.5 -202.5t-278 -74.5q-151 0 -279 74.5t-202.5 202.5t-74.5 278q0 47 26.5 85.5t69.5 55.5l117 47l-211 75l-2 60q0 150 74.5 278t202.5 202.5t279 74.5q150 0 278 -74.5t202.5 -202.5t74.5 -278q0 -47 -26.5 -85.5
t-69.5 -55.5zM317 1105q-47 -47 -64 -110t-2 -126l374 -128l300 107q-7 10 -24 27l-229 230q-74 73 -178 73t-177 -73zM901 255q49 49 66 115t-1 128l-350 124l-312 -111q3 -16 13 -26l229 -230q74 -73 178 -73t177 73z" />
    <glyph glyph-name="nine" unicode="9" horiz-adv-x="1236" 
d="M615 1431q113 0 216.5 -44t178.5 -119t119 -178.5t44 -216.5v-332h-1q-3 -111 -48.5 -211t-120 -172.5t-176 -115t-212.5 -42.5q-113 0 -216.5 44t-178.5 119t-119 178.5t-44 216.5h236q12 -18 29 -35l230 -230q74 -73 179 -73t178 73q46 46 63 106.5t5 121.5l-920 326
v26q0 113 44 216.5t119 178.5t178.5 119t216.5 44zM322 1138q-49 -49 -65.5 -115.5t1.5 -128.5l709 -252q26 66 10.5 139t-68.5 126l-231 231q-74 74 -178 74t-178 -74z" />
    <glyph glyph-name="colon" unicode=":" 
d="M271 290h-222v244h222v-244zM271 764h-222v254h222v-254z" />
    <glyph glyph-name="semicolon" unicode=";" horiz-adv-x="385" 
d="M337 764h-222v254h222v-254zM49 275l68 259h220l-128 -301z" />
    <glyph glyph-name="less" unicode="&#x3c;" horiz-adv-x="645" 
d="M596 817l-363 -129l363 -128l-37 -104l-510 180v104l510 181z" />
    <glyph glyph-name="equal" unicode="=" horiz-adv-x="743" 
d="M693 356h-644v111h644v-111zM693 836h-644v110h644v-110z" />
    <glyph glyph-name="greater" unicode="&#x3e;" horiz-adv-x="645" 
d="M86 921l510 -181v-104l-510 -180l-37 104l362 128l-362 129z" />
    <glyph glyph-name="question" unicode="?" horiz-adv-x="1214" 
d="M645 -10h-222v244h222v-244zM607 1423q113 0 216.5 -44t178.5 -119t119 -178.5t44 -216.5l-484 -348q-42 -24 -42 -73v-131h-222v131q0 82 42 153.5t114 112.5l400 225q13 120 -72 205q-73 74 -178 74t-179 -74l-230 -230q-21 -21 -36 -45h-229q0 113 44 216.5t119 178.5
t178.5 119t216.5 44z" />
    <glyph glyph-name="at" unicode="@" horiz-adv-x="1529" 
d="M765 1432q194 0 359 -96t261 -261t96 -359l-6 -202q0 -117 -91.5 -202t-211.5 -85q-102 0 -180 63.5t-100 160.5q-71 -45 -154 -45q-118 0 -201 83t-83 201t83 201q70 70 168.5 81t179.5 -39l-1 2v30h151l-178 178q-108 108 -260 108t-260 -108t-108 -260t108 -260
l336 -336q77 -77 183 -99.5t202 13.5l85 -93q-173 -108 -378 -108q-194 0 -359 96t-261 261t-96 359t96 359t261 261t359 96zM877 600v180q0 58 -40.5 98.5t-98.5 40.5t-98.5 -40.5t-40.5 -98.5v-180q0 -58 40.5 -98.5t98.5 -40.5t98.5 40.5t40.5 98.5zM1172 380q55 0 92 39
t37 95v34q0 151 -108 259l-156 156v-449q0 -55 39.5 -94.5t95.5 -39.5z" />
    <glyph glyph-name="A" unicode="A" horiz-adv-x="1206" 
d="M842 1352l363 -1352h-229l-130 484h-417l-112 -484h-313l331 1430h427q29 -8 50.5 -28.5t29.5 -49.5zM454 594h362l-166 619h-52z" />
    <glyph glyph-name="A" unicode="&#xc5;" horiz-adv-x="1206" 
d="M842 1352l363 -1352h-229l-130 484h-417l-112 -484h-313l331 1430h427q29 -8 50.5 -28.5t29.5 -49.5zM454 594h362l-166 619h-52z" />
    <glyph glyph-name="A" unicode="&#xc4;" horiz-adv-x="1206" 
d="M842 1352l363 -1352h-229l-130 484h-417l-112 -484h-313l331 1430h427q29 -8 50.5 -28.5t29.5 -49.5zM454 594h362l-166 619h-52z" />
    <glyph glyph-name="A" unicode="&#xc3;" horiz-adv-x="1206" 
d="M842 1352l363 -1352h-229l-130 484h-417l-112 -484h-313l331 1430h427q29 -8 50.5 -28.5t29.5 -49.5zM454 594h362l-166 619h-52z" />
    <glyph glyph-name="A" unicode="&#xc2;" horiz-adv-x="1206" 
d="M842 1352l363 -1352h-229l-130 484h-417l-112 -484h-313l331 1430h427q29 -8 50.5 -28.5t29.5 -49.5zM454 594h362l-166 619h-52z" />
    <glyph glyph-name="A" unicode="&#xc1;" horiz-adv-x="1206" 
d="M842 1352l363 -1352h-229l-130 484h-417l-112 -484h-313l331 1430h427q29 -8 50.5 -28.5t29.5 -49.5zM454 594h362l-166 619h-52z" />
    <glyph glyph-name="A" unicode="&#xc0;" horiz-adv-x="1206" 
d="M842 1352l363 -1352h-229l-130 484h-417l-112 -484h-313l331 1430h427q29 -8 50.5 -28.5t29.5 -49.5zM454 594h362l-166 619h-52z" />
    <glyph glyph-name="B" unicode="B" horiz-adv-x="1243" 
d="M1189 1005q0 -165 -114 -289q114 -124 114 -289q0 -176 -125.5 -301.5t-301.5 -125.5l-676 -1v1431h711q165 -14 278.5 -136t113.5 -289zM392 1305v-520h426q108 0 184 76t76 184t-76 184t-184 76h-426zM1078 426q0 108 -76 184t-184 76h-426v-520h426q108 0 184 76
t76 184z" />
    <glyph glyph-name="C" unicode="C" horiz-adv-x="1470" 
d="M1126 579h321q-49 -248 -246.5 -412.5t-455.5 -164.5q-194 0 -359 96t-261 261t-96 359t96 359t261 261t359 96q253 0 448.5 -159t249.5 -401h-163q5 159 -107 271q-108 108 -260 108t-260 -108l-336 -336q-108 -108 -108 -260t108 -260t260 -108t260 108z" />
    <glyph glyph-name="C" unicode="&#xc7;" horiz-adv-x="1470" 
d="M1126 579h321q-49 -248 -246.5 -412.5t-455.5 -164.5q-194 0 -359 96t-261 261t-96 359t96 359t261 261t359 96q253 0 448.5 -159t249.5 -401h-163q5 159 -107 271q-108 108 -260 108t-260 -108l-336 -336q-108 -108 -108 -260t108 -260t260 -108t260 108z" />
    <glyph glyph-name="D" unicode="D" horiz-adv-x="1269" 
d="M523 1434q194 0 359 -96t261 -261t96 -359t-96 -359t-261 -261t-359 -96h-437v1432h437zM936 551v333q0 152 -108 260t-260 108h-368v-1069h368q152 0 260 108t108 260z" />
    <glyph glyph-name="E" unicode="E" horiz-adv-x="1488" 
d="M1452 606h-298l1 1h-941q-14 -86 12 -170t90 -148q108 -108 260.5 -108t260.5 108l148 148h418q-83 -195 -261.5 -315t-396.5 -120q-194 0 -359 96t-261 261t-96 359t96 359t261 261t359 96t359 -96t261 -261t96 -359q0 -58 -9 -112zM336 829h940q13 86 -13.5 169.5
t-89.5 146.5q-108 108 -260 108t-260 -108z" />
    <glyph glyph-name="E" unicode="&#xcb;" horiz-adv-x="1488" 
d="M1452 606h-298l1 1h-941q-14 -86 12 -170t90 -148q108 -108 260.5 -108t260.5 108l148 148h418q-83 -195 -261.5 -315t-396.5 -120q-194 0 -359 96t-261 261t-96 359t96 359t261 261t359 96t359 -96t261 -261t96 -359q0 -58 -9 -112zM336 829h940q13 86 -13.5 169.5
t-89.5 146.5q-108 108 -260 108t-260 -108z" />
    <glyph glyph-name="E" unicode="&#xca;" horiz-adv-x="1488" 
d="M1452 606h-298l1 1h-941q-14 -86 12 -170t90 -148q108 -108 260.5 -108t260.5 108l148 148h418q-83 -195 -261.5 -315t-396.5 -120q-194 0 -359 96t-261 261t-96 359t96 359t261 261t359 96t359 -96t261 -261t96 -359q0 -58 -9 -112zM336 829h940q13 86 -13.5 169.5
t-89.5 146.5q-108 108 -260 108t-260 -108z" />
    <glyph glyph-name="E" unicode="&#xc9;" horiz-adv-x="1488" 
d="M1452 606h-298l1 1h-941q-14 -86 12 -170t90 -148q108 -108 260.5 -108t260.5 108l148 148h418q-83 -195 -261.5 -315t-396.5 -120q-194 0 -359 96t-261 261t-96 359t96 359t261 261t359 96t359 -96t261 -261t96 -359q0 -58 -9 -112zM336 829h940q13 86 -13.5 169.5
t-89.5 146.5q-108 108 -260 108t-260 -108z" />
    <glyph glyph-name="E" unicode="&#xc8;" horiz-adv-x="1488" 
d="M1452 606h-298l1 1h-941q-14 -86 12 -170t90 -148q108 -108 260.5 -108t260.5 108l148 148h418q-83 -195 -261.5 -315t-396.5 -120q-194 0 -359 96t-261 261t-96 359t96 359t261 261t359 96t359 -96t261 -261t96 -359q0 -58 -9 -112zM336 829h940q13 86 -13.5 169.5
t-89.5 146.5q-108 108 -260 108t-260 -108z" />
    <glyph glyph-name="F" unicode="F" horiz-adv-x="1019" 
d="M1011 1323h-620v-458h564v-222h-564v-643h-305v1432h97v2h828v-111z" />
    <glyph glyph-name="G" unicode="G" horiz-adv-x="1482" 
d="M862 594h600v-110h-41q-74 -213 -259 -347.5t-417 -134.5q-194 0 -359 96t-261 261t-96 359t96 359t261 261t359 96q253 0 448.5 -159t249.5 -401h-330v81q0 152 -108 260t-260 108t-260 -108t-108 -260v-476q0 -152 108 -260t260 -108t260 108t108 260v5h-251v110z" />
    <glyph glyph-name="H" unicode="H" horiz-adv-x="1228" 
d="M1031 1433h111v-1433h-111v607h-640v-607h-305v1432h305v-603h640v604z" />
    <glyph glyph-name="I" unicode="I" horiz-adv-x="477" 
d="M391 2h-305v1432h305v-1432z" />
    <glyph glyph-name="I" unicode="&#xcf;" horiz-adv-x="477" 
d="M391 2h-305v1432h305v-1432z" />
    <glyph glyph-name="I" unicode="&#xce;" horiz-adv-x="477" 
d="M391 2h-305v1432h305v-1432z" />
    <glyph glyph-name="I" unicode="&#xcd;" horiz-adv-x="477" 
d="M391 2h-305v1432h305v-1432z" />
    <glyph glyph-name="I" unicode="&#xcc;" horiz-adv-x="477" 
d="M391 2h-305v1432h305v-1432z" />
    <glyph glyph-name="J" unicode="J" horiz-adv-x="1222" 
d="M1156 1380v-813q0 -155 -76.5 -286.5t-208 -208t-286.5 -76.5t-286.5 76.5t-208 208t-76.5 286.5v152h304v-305q0 -110 78.5 -188t188.5 -78t188 78t78 188v140q0 2 0.5 6.5t0.5 6.5v752h-267v111h571v-50z" />
    <glyph glyph-name="K" unicode="K" horiz-adv-x="1286" 
d="M1227 1135q0 -59 -49 -92l-346 -234q173 -47 284 -190.5t111 -326.5v-290h-221v290q0 10 -2 32v65q0 127 -90 217t-217 90q-20 0 -38 -3l-230 -156q-38 -70 -38 -147v-390h-305v1432h305v-653l615 415v241h221v-300z" />
    <glyph glyph-name="L" unicode="L" horiz-adv-x="1042" 
d="M391 110h668v-111h-972v1h-1v1432h305v-1322z" />
    <glyph glyph-name="M" unicode="M" horiz-adv-x="1585" 
d="M1311 1434h187v-1434h-111v1183l-303 -1100q-10 -36 -39.5 -58.5t-66.5 -22.5h-164q-38 0 -67.5 22.5t-39.5 58.5l-311 1130h-5v-1213h-305v1434h395q37 0 66.5 -22.5t39.5 -58.5l309 -1121l308 1121q10 36 39.5 58.5t67.5 22.5z" />
    <glyph glyph-name="N" unicode="N" horiz-adv-x="1218" 
d="M1021 1432h111v-1430h-207q-35 0 -63.5 20t-40.5 53l-418 1138h-12v-1213h-305v1432h42v2h353q35 0 63 -19.5t40 -52.5l418 -1138h19v1208z" />
    <glyph glyph-name="N" unicode="&#xd1;" horiz-adv-x="1218" 
d="M1021 1432h111v-1430h-207q-35 0 -63.5 20t-40.5 53l-418 1138h-12v-1213h-305v1432h42v2h353q35 0 63 -19.5t40 -52.5l418 -1138h19v1208z" />
    <glyph glyph-name="O" unicode="O" horiz-adv-x="1490" 
d="M745 1434q194 0 359 -96t261 -261t96 -359t-96 -359t-261 -261t-359 -96t-359 96t-261 261t-96 359t96 359t261 261t359 96zM1173 625q108 108 108 260t-108 260t-260 108t-260 -108l-336 -336q-108 -108 -108 -260t108 -260t260 -108t260 108z" />
    <glyph glyph-name="O" unicode="&#xd8;" horiz-adv-x="1490" 
d="M745 1434q194 0 359 -96t261 -261t96 -359t-96 -359t-261 -261t-359 -96t-359 96t-261 261t-96 359t96 359t261 261t359 96zM1173 625q108 108 108 260t-108 260t-260 108t-260 -108l-336 -336q-108 -108 -108 -260t108 -260t260 -108t260 108z" />
    <glyph glyph-name="O" unicode="&#xd6;" horiz-adv-x="1490" 
d="M745 1434q194 0 359 -96t261 -261t96 -359t-96 -359t-261 -261t-359 -96t-359 96t-261 261t-96 359t96 359t261 261t359 96zM1173 625q108 108 108 260t-108 260t-260 108t-260 -108l-336 -336q-108 -108 -108 -260t108 -260t260 -108t260 108z" />
    <glyph glyph-name="O" unicode="&#xd5;" horiz-adv-x="1490" 
d="M745 1434q194 0 359 -96t261 -261t96 -359t-96 -359t-261 -261t-359 -96t-359 96t-261 261t-96 359t96 359t261 261t359 96zM1173 625q108 108 108 260t-108 260t-260 108t-260 -108l-336 -336q-108 -108 -108 -260t108 -260t260 -108t260 108z" />
    <glyph glyph-name="O" unicode="&#xd4;" horiz-adv-x="1490" 
d="M745 1434q194 0 359 -96t261 -261t96 -359t-96 -359t-261 -261t-359 -96t-359 96t-261 261t-96 359t96 359t261 261t359 96zM1173 625q108 108 108 260t-108 260t-260 108t-260 -108l-336 -336q-108 -108 -108 -260t108 -260t260 -108t260 108z" />
    <glyph glyph-name="O" unicode="&#xd3;" horiz-adv-x="1490" 
d="M745 1434q194 0 359 -96t261 -261t96 -359t-96 -359t-261 -261t-359 -96t-359 96t-261 261t-96 359t96 359t261 261t359 96zM1173 625q108 108 108 260t-108 260t-260 108t-260 -108l-336 -336q-108 -108 -108 -260t108 -260t260 -108t260 108z" />
    <glyph glyph-name="O" unicode="&#xd2;" horiz-adv-x="1490" 
d="M745 1434q194 0 359 -96t261 -261t96 -359t-96 -359t-261 -261t-359 -96t-359 96t-261 261t-96 359t96 359t261 261t359 96zM1173 625q108 108 108 260t-108 260t-260 108t-260 -108l-336 -336q-108 -108 -108 -260t108 -260t260 -108t260 108z" />
    <glyph glyph-name="P" unicode="P" horiz-adv-x="1204" 
d="M762 1434q176 0 301.5 -125.5t125.5 -301.5t-125.5 -301.5t-301.5 -125.5h-371v-580h-305v1434h676zM789 804q104 4 177 79t73 180q0 108 -76 184t-184 76h-388v-110v-411h371q9 0 27 2z" />
    <glyph glyph-name="Q" unicode="Q" horiz-adv-x="1542" 
d="M1297 263l239 -263l-298 -1l-106 117q-177 -114 -387 -114q-194 0 -359 96t-261 261t-96 359t96 359t261 261t359 96t359 -96t261 -261t96 -359q0 -256 -164 -455zM1221 348q71 106 58 237t-106 224l-336 336q-108 108 -260 108t-260 -108t-108 -260t108 -260l336 -336
q79 -79 188.5 -101t207.5 19l-190 210l164 148z" />
    <glyph glyph-name="R" unicode="R" horiz-adv-x="1255" 
d="M1033 677q77 -75 120.5 -174.5t43.5 -210.5v-290h-221v244h-1v40q0 122 -85.5 207.5t-207.5 85.5h-1v1h-290v-272q-2 -14 -2 -22v-286h-303v1434h676q176 0 301.5 -125.5t125.5 -301.5q0 -98 -41.5 -184t-114.5 -146zM779 803q108 0 184 76t76 184t-76 184t-184 76h-388
v-110v-411h269v1h119z" />
    <glyph glyph-name="S" unicode="S" horiz-adv-x="1193" 
d="M303 1141q-48 -48 -64.5 -111t-1.5 -127l918 -324v-26q0 -113 -44 -216.5t-119 -178.5t-178.5 -119t-216.5 -44t-216.5 44t-178.5 119t-119 178.5t-44 216.5h236q14 -21 28 -35l231 -230q74 -74 178 -74t178 74q49 49 66 115.5t-1 128.5l-916 324v21q0 113 44 216.5
t119 178.5t178.5 119t216.5 44t216.5 -44t178.5 -119t119 -178.5t44 -216.5h-236q-10 15 -29 34l-230 230q-74 73 -179 73t-178 -73z" />
    <glyph glyph-name="T" unicode="T" horiz-adv-x="1015" 
d="M-18 1430h1052v-110h-376v-1319h-305v1319h-371v110z" />
    <glyph glyph-name="U" unicode="U" horiz-adv-x="1247" 
d="M896 1432h285v-897h-2q-6 -146 -81.5 -268.5t-201.5 -194t-273 -71.5t-273 71.5t-201.5 194t-81.5 268.5h-1v4v19v874h286v-380v-2l-1 -2v-666q0 -112 79.5 -192t192.5 -80q112 0 191.5 79.5t79.5 192.5v176h2v874z" />
    <glyph glyph-name="U" unicode="&#xdc;" horiz-adv-x="1247" 
d="M896 1432h285v-897h-2q-6 -146 -81.5 -268.5t-201.5 -194t-273 -71.5t-273 71.5t-201.5 194t-81.5 268.5h-1v4v19v874h286v-380v-2l-1 -2v-666q0 -112 79.5 -192t192.5 -80q112 0 191.5 79.5t79.5 192.5v176h2v874z" />
    <glyph glyph-name="U" unicode="&#xdb;" horiz-adv-x="1247" 
d="M896 1432h285v-897h-2q-6 -146 -81.5 -268.5t-201.5 -194t-273 -71.5t-273 71.5t-201.5 194t-81.5 268.5h-1v4v19v874h286v-380v-2l-1 -2v-666q0 -112 79.5 -192t192.5 -80q112 0 191.5 79.5t79.5 192.5v176h2v874z" />
    <glyph glyph-name="U" unicode="&#xda;" horiz-adv-x="1247" 
d="M896 1432h285v-897h-2q-6 -146 -81.5 -268.5t-201.5 -194t-273 -71.5t-273 71.5t-201.5 194t-81.5 268.5h-1v4v19v874h286v-380v-2l-1 -2v-666q0 -112 79.5 -192t192.5 -80q112 0 191.5 79.5t79.5 192.5v176h2v874z" />
    <glyph glyph-name="U" unicode="&#xd9;" horiz-adv-x="1247" 
d="M896 1432h285v-897h-2q-6 -146 -81.5 -268.5t-201.5 -194t-273 -71.5t-273 71.5t-201.5 194t-81.5 268.5h-1v4v19v874h286v-380v-2l-1 -2v-666q0 -112 79.5 -192t192.5 -80q112 0 191.5 79.5t79.5 192.5v176h2v874z" />
    <glyph glyph-name="V" unicode="V" horiz-adv-x="1204" 
d="M976 1432h229l-363 -1352q-8 -30 -30.5 -51t-53.5 -28h-422l-332 1431h313l281 -1213h52z" />
    <glyph glyph-name="W" unicode="W" horiz-adv-x="1501" 
d="M1446 1432l11 -1l-111 -1321v-109h-187q-37 0 -65.5 21.5t-39.5 56.5l-199 639l-199 -639q-11 -35 -40 -56.5t-66 -21.5h-89h-305l-111 1431h305l94 -1209h25l198 639q11 35 40 56.5t66 21.5h164q37 0 66 -21.5t40 -56.5l198 -639h4l101 1209h100z" />
    <glyph glyph-name="X" unicode="X" horiz-adv-x="1099" 
d="M748 755l350 -754h-336l-293 633l-314 -633h-124l326 658l-357 771h336l301 -649l322 649h124z" />
    <glyph glyph-name="Y" unicode="Y" horiz-adv-x="1036" 
d="M933 1437h123l-368 -742q-15 -31 -49 -31h-34v-665h-221v665h-47l-357 773h335l298 -644z" />
    <glyph glyph-name="Y" unicode="&#x178;" horiz-adv-x="1036" 
d="M933 1437h123l-368 -742q-15 -31 -49 -31h-34v-665h-221v665h-47l-357 773h335l298 -644z" />
    <glyph glyph-name="Y" unicode="&#xdd;" horiz-adv-x="1036" 
d="M933 1437h123l-368 -742q-15 -31 -49 -31h-34v-665h-221v665h-47l-357 773h335l298 -644z" />
    <glyph glyph-name="Z" unicode="Z" horiz-adv-x="1179" 
d="M93 1436h1067v-216q0 -56 -37 -99l-778 -901h739v-221h-1067v12h-1v237q0 57 37 100l802 929v48h-762v111z" />
    <glyph glyph-name="bracketleft" unicode="[" horiz-adv-x="575" 
d="M527 1326h-367v-1215h367v-111h-422q-23 0 -39.5 16.5t-16.5 39.5v1325q0 23 16.5 39.5t39.5 16.5h422v-111z" />
    <glyph glyph-name="backslash" unicode="\" horiz-adv-x="919" 
d="M172 1436l699 -1435h-123l-699 1435h123z" />
    <glyph glyph-name="bracketright" unicode="]" horiz-adv-x="575" 
d="M472 1437q23 0 39 -16.5t16 -39.5v-1325q0 -23 -16 -39.5t-39 -16.5h-423v111h367v1215h-367v111h423z" />
    <glyph glyph-name="asciicircum" unicode="^" horiz-adv-x="868" 
d="M474 1206l346 -344l-78 -78l-307 304l-308 -304l-78 78l347 344h78z" />
    <glyph glyph-name="underscore" unicode="_" horiz-adv-x="520" 
d="M472 1h-423v110h423v-110z" />
    <glyph glyph-name="a" unicode="a" horiz-adv-x="1206" 
d="M870 1430l331 -1430h-313l-112 484h-417l-130 -484h-229l363 1352q8 29 29.5 49.5t50.5 28.5h427zM389 594h362l-143 619h-53z" />
    <glyph glyph-name="a" unicode="&#xe5;" horiz-adv-x="1206" 
d="M870 1430l331 -1430h-313l-112 484h-417l-130 -484h-229l363 1352q8 29 29.5 49.5t50.5 28.5h427zM389 594h362l-143 619h-53z" />
    <glyph glyph-name="a" unicode="&#xe4;" horiz-adv-x="1206" 
d="M870 1430l331 -1430h-313l-112 484h-417l-130 -484h-229l363 1352q8 29 29.5 49.5t50.5 28.5h427zM389 594h362l-143 619h-53z" />
    <glyph glyph-name="a" unicode="&#xe3;" horiz-adv-x="1206" 
d="M870 1430l331 -1430h-313l-112 484h-417l-130 -484h-229l363 1352q8 29 29.5 49.5t50.5 28.5h427zM389 594h362l-143 619h-53z" />
    <glyph glyph-name="a" unicode="&#xe2;" horiz-adv-x="1206" 
d="M870 1430l331 -1430h-313l-112 484h-417l-130 -484h-229l363 1352q8 29 29.5 49.5t50.5 28.5h427zM389 594h362l-143 619h-53z" />
    <glyph glyph-name="a" unicode="&#xe1;" horiz-adv-x="1206" 
d="M870 1430l331 -1430h-313l-112 484h-417l-130 -484h-229l363 1352q8 29 29.5 49.5t50.5 28.5h427zM389 594h362l-143 619h-53z" />
    <glyph glyph-name="a" unicode="&#xe0;" horiz-adv-x="1206" 
d="M870 1430l331 -1430h-313l-112 484h-417l-130 -484h-229l363 1352q8 29 29.5 49.5t50.5 28.5h427zM389 594h362l-143 619h-53z" />
    <glyph glyph-name="b" unicode="b" horiz-adv-x="1243" 
d="M1189 1005q0 -165 -114 -289q114 -124 114 -289q0 -176 -125.5 -301.5t-301.5 -125.5l-676 -1v1431h711q165 -14 278.5 -136t113.5 -289zM392 1305v-520h426q108 0 184 76t76 184t-76 184t-184 76h-426zM1078 426q0 108 -76 184t-184 76h-426v-520h426q108 0 184 76
t76 184z" />
    <glyph glyph-name="c" unicode="c" horiz-adv-x="1470" 
d="M1173 291q112 112 107 271h163q-54 -242 -249.5 -401t-448.5 -159q-194 0 -359 96t-261 261t-96 359t96 359t261 261t359 96q258 0 455.5 -164.5t246.5 -412.5h-321l-289 290q-108 108 -260 108t-260 -108t-108 -260t108 -260l336 -336q108 -108 260 -108t260 108z" />
    <glyph glyph-name="c" unicode="&#xe7;" horiz-adv-x="1470" 
d="M1173 291q112 112 107 271h163q-54 -242 -249.5 -401t-448.5 -159q-194 0 -359 96t-261 261t-96 359t96 359t261 261t359 96q258 0 455.5 -164.5t246.5 -412.5h-321l-289 290q-108 108 -260 108t-260 -108t-108 -260t108 -260l336 -336q108 -108 260 -108t260 108z" />
    <glyph glyph-name="d" unicode="d" horiz-adv-x="1269" 
d="M523 1434q194 0 359 -96t261 -261t96 -359t-96 -359t-261 -261t-359 -96h-437v1432h437zM936 551v333q0 152 -108 260t-260 108h-368v-1069h368q152 0 260 108t108 260z" />
    <glyph glyph-name="e" unicode="e" horiz-adv-x="1488" 
d="M1452 606h-298l1 1h-941q-14 -86 12 -170t90 -148q108 -108 260.5 -108t260.5 108l148 148h418q-83 -195 -261.5 -315t-396.5 -120q-194 0 -359 96t-261 261t-96 359t96 359t261 261t359 96t359 -96t261 -261t96 -359q0 -58 -9 -112zM336 829h940q13 86 -13.5 169.5
t-89.5 146.5q-108 108 -260 108t-260 -108z" />
    <glyph glyph-name="e" unicode="&#xeb;" horiz-adv-x="1488" 
d="M1452 606h-298l1 1h-941q-14 -86 12 -170t90 -148q108 -108 260.5 -108t260.5 108l148 148h418q-83 -195 -261.5 -315t-396.5 -120q-194 0 -359 96t-261 261t-96 359t96 359t261 261t359 96t359 -96t261 -261t96 -359q0 -58 -9 -112zM336 829h940q13 86 -13.5 169.5
t-89.5 146.5q-108 108 -260 108t-260 -108z" />
    <glyph glyph-name="e" unicode="&#xea;" horiz-adv-x="1488" 
d="M1452 606h-298l1 1h-941q-14 -86 12 -170t90 -148q108 -108 260.5 -108t260.5 108l148 148h418q-83 -195 -261.5 -315t-396.5 -120q-194 0 -359 96t-261 261t-96 359t96 359t261 261t359 96t359 -96t261 -261t96 -359q0 -58 -9 -112zM336 829h940q13 86 -13.5 169.5
t-89.5 146.5q-108 108 -260 108t-260 -108z" />
    <glyph glyph-name="e" unicode="&#xe9;" horiz-adv-x="1488" 
d="M1452 606h-298l1 1h-941q-14 -86 12 -170t90 -148q108 -108 260.5 -108t260.5 108l148 148h418q-83 -195 -261.5 -315t-396.5 -120q-194 0 -359 96t-261 261t-96 359t96 359t261 261t359 96t359 -96t261 -261t96 -359q0 -58 -9 -112zM336 829h940q13 86 -13.5 169.5
t-89.5 146.5q-108 108 -260 108t-260 -108z" />
    <glyph glyph-name="e" unicode="&#xe8;" horiz-adv-x="1488" 
d="M1452 606h-298l1 1h-941q-14 -86 12 -170t90 -148q108 -108 260.5 -108t260.5 108l148 148h418q-83 -195 -261.5 -315t-396.5 -120q-194 0 -359 96t-261 261t-96 359t96 359t261 261t359 96t359 -96t261 -261t96 -359q0 -58 -9 -112zM336 829h940q13 86 -13.5 169.5
t-89.5 146.5q-108 108 -260 108t-260 -108z" />
    <glyph glyph-name="f" unicode="f" horiz-adv-x="1019" 
d="M1011 1323h-620v-458h564v-222h-564v-643h-305v1432h97v2h828v-111z" />
    <glyph glyph-name="g" unicode="g" horiz-adv-x="1482" 
d="M862 594h600v-110h-41q-74 -213 -259 -347.5t-417 -134.5q-194 0 -359 96t-261 261t-96 359t96 359t261 261t359 96q253 0 448.5 -159t249.5 -401h-330v81q0 152 -108 260t-260 108t-260 -108t-108 -260v-476q0 -152 108 -260t260 -108t260 108t108 260v5h-251v110z" />
    <glyph glyph-name="h" unicode="h" horiz-adv-x="1228" 
d="M838 1432h304v-1432h-304v607h-641v-607h-111v1433h111v-604h641v603z" />
    <glyph glyph-name="i" unicode="i" horiz-adv-x="477" 
d="M391 2h-305v1432h305v-1432z" />
    <glyph glyph-name="i" unicode="&#xef;" horiz-adv-x="477" 
d="M391 2h-305v1432h305v-1432z" />
    <glyph glyph-name="i" unicode="&#xee;" horiz-adv-x="477" 
d="M391 2h-305v1432h305v-1432z" />
    <glyph glyph-name="i" unicode="&#xed;" horiz-adv-x="477" 
d="M391 2h-305v1432h305v-1432z" />
    <glyph glyph-name="i" unicode="&#xec;" horiz-adv-x="477" 
d="M391 2h-305v1432h305v-1432z" />
    <glyph glyph-name="j" unicode="j" horiz-adv-x="1222" 
d="M1156 1380v-813q0 -155 -76.5 -286.5t-208 -208t-286.5 -76.5t-286.5 76.5t-208 208t-76.5 286.5v152h304v-305q0 -110 78.5 -188t188.5 -78t188 78t78 188v140q0 2 0.5 6.5t0.5 6.5v752h-267v111h571v-50z" />
    <glyph glyph-name="k" unicode="k" horiz-adv-x="1286" 
d="M1227 1143q0 -183 -111 -327t-284 -191l346 -234q49 -33 49 -92v-299h-221v240l-615 416v-654h-305v1433h305v-391q0 -77 38 -147l230 -156q12 -2 38 -2q127 0 217 90t90 217v64q2 22 2 33v289h221v-289z" />
    <glyph glyph-name="l" unicode="l" horiz-adv-x="1042" 
d="M391 110h668v-111h-972v1h-1v1432h305v-1322z" />
    <glyph glyph-name="m" unicode="m" horiz-adv-x="1585" 
d="M1103 1434h395v-1434h-305v1213h-5l-311 -1130q-10 -36 -39.5 -58.5t-67.5 -22.5h-164q-38 0 -67.5 22.5t-39.5 58.5l-302 1100v-1183h-111v1434h187q38 0 67.5 -22.5t39.5 -58.5l308 -1121l309 1121q10 36 39.5 58.5t66.5 22.5z" />
    <glyph glyph-name="n" unicode="n" horiz-adv-x="1218" 
d="M827 1434h305v-1433h-42v-1h-353q-35 0 -63.5 19.5t-40.5 52.5l-417 1138h-19v-1209h-111v1431h207q35 0 63.5 -20t40.5 -53l418 -1138h12v1213z" />
    <glyph glyph-name="n" unicode="&#xf1;" horiz-adv-x="1218" 
d="M827 1434h305v-1433h-42v-1h-353q-35 0 -63.5 19.5t-40.5 52.5l-417 1138h-19v-1209h-111v1431h207q35 0 63.5 -20t40.5 -53l418 -1138h12v1213z" />
    <glyph glyph-name="o" unicode="o" horiz-adv-x="1490" 
d="M745 1434q194 0 359 -96t261 -261t96 -359t-96 -359t-261 -261t-359 -96t-359 96t-261 261t-96 359t96 359t261 261t359 96zM1174 290q108 108 108 260t-108 260l-336 336q-108 108 -260.5 108t-260.5 -108t-108 -260t108 -260l337 -336q108 -108 260 -108t260 108z" />
    <glyph glyph-name="o" unicode="&#xf8;" horiz-adv-x="1490" 
d="M745 1434q194 0 359 -96t261 -261t96 -359t-96 -359t-261 -261t-359 -96t-359 96t-261 261t-96 359t96 359t261 261t359 96zM1174 290q108 108 108 260t-108 260l-336 336q-108 108 -260.5 108t-260.5 -108t-108 -260t108 -260l337 -336q108 -108 260 -108t260 108z" />
    <glyph glyph-name="o" unicode="&#xf6;" horiz-adv-x="1490" 
d="M745 1434q194 0 359 -96t261 -261t96 -359t-96 -359t-261 -261t-359 -96t-359 96t-261 261t-96 359t96 359t261 261t359 96zM1174 290q108 108 108 260t-108 260l-336 336q-108 108 -260.5 108t-260.5 -108t-108 -260t108 -260l337 -336q108 -108 260 -108t260 108z" />
    <glyph glyph-name="o" unicode="&#xf5;" horiz-adv-x="1490" 
d="M745 1434q194 0 359 -96t261 -261t96 -359t-96 -359t-261 -261t-359 -96t-359 96t-261 261t-96 359t96 359t261 261t359 96zM1174 290q108 108 108 260t-108 260l-336 336q-108 108 -260.5 108t-260.5 -108t-108 -260t108 -260l337 -336q108 -108 260 -108t260 108z" />
    <glyph glyph-name="o" unicode="&#xf4;" horiz-adv-x="1490" 
d="M745 1434q194 0 359 -96t261 -261t96 -359t-96 -359t-261 -261t-359 -96t-359 96t-261 261t-96 359t96 359t261 261t359 96zM1174 290q108 108 108 260t-108 260l-336 336q-108 108 -260.5 108t-260.5 -108t-108 -260t108 -260l337 -336q108 -108 260 -108t260 108z" />
    <glyph glyph-name="o" unicode="&#xf3;" horiz-adv-x="1490" 
d="M745 1434q194 0 359 -96t261 -261t96 -359t-96 -359t-261 -261t-359 -96t-359 96t-261 261t-96 359t96 359t261 261t359 96zM1174 290q108 108 108 260t-108 260l-336 336q-108 108 -260.5 108t-260.5 -108t-108 -260t108 -260l337 -336q108 -108 260 -108t260 108z" />
    <glyph glyph-name="o" unicode="&#xf2;" horiz-adv-x="1490" 
d="M745 1434q194 0 359 -96t261 -261t96 -359t-96 -359t-261 -261t-359 -96t-359 96t-261 261t-96 359t96 359t261 261t359 96zM1174 290q108 108 108 260t-108 260l-336 336q-108 108 -260.5 108t-260.5 -108t-108 -260t108 -260l337 -336q108 -108 260 -108t260 108z" />
    <glyph glyph-name="p" unicode="p" horiz-adv-x="1204" 
d="M762 1434q176 0 301.5 -125.5t125.5 -301.5t-125.5 -301.5t-301.5 -125.5h-371v-580h-305v1434h676zM789 804q104 4 177 79t73 180q0 108 -76 184t-184 76h-388v-110v-411h371q9 0 27 2z" />
    <glyph glyph-name="q" unicode="q" horiz-adv-x="1542" 
d="M1297 263l239 -263l-298 -1l-106 117q-177 -114 -387 -114q-194 0 -359 96t-261 261t-96 359t96 359t261 261t359 96t359 -96t261 -261t96 -359q0 -256 -164 -455zM1221 348q71 106 58 237t-106 224l-336 336q-108 108 -260 108t-260 -108t-108 -260t108 -260l336 -336
q79 -79 188.5 -101t207.5 19l-190 210l164 148z" />
    <glyph glyph-name="r" unicode="r" horiz-adv-x="1255" 
d="M1033 677q77 -75 120.5 -174.5t43.5 -210.5v-290h-221v244h-1v40q0 122 -85.5 207.5t-207.5 85.5h-1v1h-290v-272q-2 -14 -2 -22v-286h-303v1434h676q176 0 301.5 -125.5t125.5 -301.5q0 -98 -41.5 -184t-114.5 -146zM779 803q108 0 184 76t76 184t-76 184t-184 76h-388
v-110v-411h269v1h119z" />
    <glyph glyph-name="s" unicode="s" horiz-adv-x="1193" 
d="M303 1141q-48 -48 -64.5 -111t-1.5 -127l918 -325v-25q0 -113 -44 -216.5t-119 -178.5t-178.5 -119t-216.5 -44t-216.5 44t-178.5 119t-119 178.5t-44 216.5h236q14 -21 28 -35l231 -230q74 -74 178 -74t178 74q49 49 66 115.5t-1 128.5l-916 324v21q0 113 44 216.5
t119 178.5t178.5 119t216.5 44t216.5 -44t178.5 -119t119 -178.5t44 -216.5h-236q-10 15 -29 34l-230 230q-74 73 -179 73t-178 -73z" />
    <glyph glyph-name="t" unicode="t" horiz-adv-x="1015" 
d="M-18 1430h1052v-110h-376v-1319h-305v1319h-371v110z" />
    <glyph glyph-name="u" unicode="u" horiz-adv-x="1247" 
d="M896 1432h285v-897h-2q-6 -146 -81.5 -268.5t-201.5 -194t-273 -71.5t-273 71.5t-201.5 194t-81.5 268.5h-1v4v19v874h286v-380v-2l-1 -2v-666q0 -112 79.5 -192t192.5 -80q112 0 191.5 79.5t79.5 192.5v176h2v874z" />
    <glyph glyph-name="u" unicode="&#xfc;" horiz-adv-x="1247" 
d="M896 1432h285v-897h-2q-6 -146 -81.5 -268.5t-201.5 -194t-273 -71.5t-273 71.5t-201.5 194t-81.5 268.5h-1v4v19v874h286v-380v-2l-1 -2v-666q0 -112 79.5 -192t192.5 -80q112 0 191.5 79.5t79.5 192.5v176h2v874z" />
    <glyph glyph-name="u" unicode="&#xfb;" horiz-adv-x="1247" 
d="M896 1432h285v-897h-2q-6 -146 -81.5 -268.5t-201.5 -194t-273 -71.5t-273 71.5t-201.5 194t-81.5 268.5h-1v4v19v874h286v-380v-2l-1 -2v-666q0 -112 79.5 -192t192.5 -80q112 0 191.5 79.5t79.5 192.5v176h2v874z" />
    <glyph glyph-name="u" unicode="&#xfa;" horiz-adv-x="1247" 
d="M896 1432h285v-897h-2q-6 -146 -81.5 -268.5t-201.5 -194t-273 -71.5t-273 71.5t-201.5 194t-81.5 268.5h-1v4v19v874h286v-380v-2l-1 -2v-666q0 -112 79.5 -192t192.5 -80q112 0 191.5 79.5t79.5 192.5v176h2v874z" />
    <glyph glyph-name="u" unicode="&#xf9;" horiz-adv-x="1247" 
d="M896 1432h285v-897h-2q-6 -146 -81.5 -268.5t-201.5 -194t-273 -71.5t-273 71.5t-201.5 194t-81.5 268.5h-1v4v19v874h286v-380v-2l-1 -2v-666q0 -112 79.5 -192t192.5 -80q112 0 191.5 79.5t79.5 192.5v176h2v874z" />
    <glyph glyph-name="v" unicode="v" horiz-adv-x="1204" 
d="M976 1432h229l-363 -1352q-8 -30 -30.5 -51t-53.5 -28h-422l-332 1431h313l281 -1213h52z" />
    <glyph glyph-name="w" unicode="w" horiz-adv-x="1501" 
d="M1149 1432h306l-111 -1431h-305h-90q-37 0 -65.5 21.5t-39.5 56.5l-199 639l-199 -639q-11 -35 -40 -56.5t-66 -21.5h-186v109l-111 1321l11 1h100l101 -1209h4l198 639q11 35 40 56.5t66 21.5h164q37 0 66 -21.5t40 -56.5l198 -639h25z" />
    <glyph glyph-name="x" unicode="x" horiz-adv-x="1099" 
d="M1100 1430l-358 -771l327 -658h-124l-314 633l-293 -633h-336l350 754l-335 675h124l322 -649l301 649h336z" />
    <glyph glyph-name="y" unicode="y" horiz-adv-x="1036" 
d="M933 1437h123l-368 -742q-15 -31 -49 -31h-34v-665h-221v665h-47l-357 773h335l298 -644z" />
    <glyph glyph-name="y" unicode="&#xff;" horiz-adv-x="1036" 
d="M933 1437h123l-368 -742q-15 -31 -49 -31h-34v-665h-221v665h-47l-357 773h335l298 -644z" />
    <glyph glyph-name="y" unicode="&#xfd;" horiz-adv-x="1036" 
d="M933 1437h123l-368 -742q-15 -31 -49 -31h-34v-665h-221v665h-47l-357 773h335l298 -644z" />
    <glyph glyph-name="z" unicode="z" horiz-adv-x="1177" 
d="M93 1436h1067v-216q0 -56 -37 -99l-778 -901h739v-221h-1067v12h-1v237q0 57 37 100l802 929v48h-762v111z" />
    <glyph glyph-name="verticalbar" unicode="|" horiz-adv-x="208" 
d="M160 -1h-111v1437h111v-1437z" />
    <glyph glyph-name="nonbreakingspace" unicode="&#xa0;" horiz-adv-x="679" 
 />
    <glyph glyph-name="softhyphen" unicode="&#xad;" horiz-adv-x="0" 
 />
    </font>
</defs>
</svg>
